<svg xmlns="http://www.w3.org/2000/svg" viewBox="0 0 800 600" preserveAspectRatio="xMidYMid slice" role="img" aria-label="Foto de imóvel">
  <defs>
    <linearGradient id="g2" x1="0" y1="0" x2="1" y2="1">
      <stop offset="0" stop-color="#ededd1"/>
      <stop offset="1" stop-color="#d9d8b8"/>
    </linearGradient>
  </defs>
  <rect width="800" height="600" fill="url(#g2)"/>
  <!-- house -->
  <g>
    <polygon points="180,260 400,140 620,260 620,500 180,500" fill="#010744"/>
    <polygon points="180,260 400,140 620,260" fill="#0a1080"/>
    <rect x="350" y="340" width="100" height="160" fill="#f2d22e"/>
    <rect x="220" y="320" width="80" height="80" fill="#f2d22e" opacity="0.85"/>
    <rect x="500" y="320" width="80" height="80" fill="#f2d22e" opacity="0.85"/>
    <line x1="260" y1="320" x2="260" y2="400" stroke="#010744" stroke-width="3"/>
    <line x1="220" y1="360" x2="300" y2="360" stroke="#010744" stroke-width="3"/>
    <line x1="540" y1="320" x2="540" y2="400" stroke="#010744" stroke-width="3"/>
    <line x1="500" y1="360" x2="580" y2="360" stroke="#010744" stroke-width="3"/>
  </g>
  <!-- garden -->
  <g fill="#0d6e4a" opacity="0.8">
    <circle cx="120" cy="500" r="40"/>
    <circle cx="160" cy="510" r="30"/>
    <circle cx="680" cy="500" r="40"/>
    <circle cx="640" cy="510" r="30"/>
  </g>
  <text x="400" y="555" font-family="Raleway, system-ui, sans-serif" font-size="14" font-weight="700" fill="#010744" text-anchor="middle" letter-spacing="6" opacity="0.5">MOREJÁ IMOBILIÁRIA</text>
</svg>
