<svg xmlns="http://www.w3.org/2000/svg" viewBox="0 0 400 400" fill="none">
  <path d="M290.08,368.85 L290.75,368.76 L292.17,365.73 L292.64,363.17 L294.72,363.46 L295.86,362.41 L297.47,361.94 L299.64,361.94 L300.88,360.52 L304.09,358.72 L307.12,357.49 L308.83,357.49 L312.14,356.17 L314.89,356.83 L316.02,355.60 L319.24,354.84 L320.09,353.99 L320.47,352.57 L321.33,352.57 L322.56,351.15 L322.08,349.35 L324.07,345.56 L324.45,343.57 L325.30,342.91 L327.48,339.31 L329.18,337.14 L329.94,335.34 L331.27,334.39 L332.59,334.11 L333.73,333.07 L333.73,332.12 L335.15,329.09 L336.76,326.63 L340.54,323.03 L344.71,319.91 L345.09,318.86 L347.83,316.02 L349.44,313.94 L350.30,312.14 L351.91,311.67 L353.99,309.78 L353.70,307.12 L354.56,305.61 L352.57,304.66 L350.96,302.49 L350.67,298.89 L349.35,296.62 L348.97,295.01 L347.55,294.25 L345.47,294.34 L344.99,293.11 L346.13,291.31 L345.75,289.89 L348.12,288.00 L351.72,286.39 L353.04,282.60 L355.31,281.94 L355.79,280.24 L338.18,239.34 L328.99,217.75 L293.87,199.57 L291.98,201.85 L290.56,205.92 L290.46,208.47 L290.75,210.27 L290.18,213.78 L288.66,214.91 L237.82,180.26 L229.40,158.86 L243.31,131.60 L268.59,80.47 L295.20,26.89 L290.56,23.86 L287.05,23.10 L285.35,21.87 L283.83,18.27 L283.64,16.28 L282.32,15.81 L275.50,17.23 L271.53,18.65 L269.16,18.37 L264.43,15.81 L263.29,14.96 L254.86,13.07 L249.75,11.55 L247.48,11.27 L243.31,9.37 L236.88,7.67 L231.76,7.38 L228.83,6.34 L224.85,6.53 L221.82,5.59 L215.01,1.23 L213.78,1.23 L210.18,0.00 L208.66,0.47 L204.88,3.31 L204.21,5.21 L204.12,10.70 L205.07,12.97 L206.30,14.30 L206.96,16.76 L206.20,22.72 L204.59,26.22 L199.95,27.17 L193.89,27.55 L189.44,28.40 L186.22,28.02 L181.96,28.97 L179.69,28.31 L174.67,28.31 L172.97,29.35 L171.17,29.54 L168.71,30.67 L161.23,33.42 L157.92,34.46 L153.28,36.64 L150.15,37.30 L145.89,37.30 L143.43,38.25 L141.44,39.57 L140.59,41.09 L138.89,42.79 L137.56,43.46 L134.82,42.41 L133.21,39.95 L130.27,37.59 L128.38,36.73 L124.88,36.64 L122.98,36.07 L121.75,35.03 L119.86,34.37 L119.67,33.14 L122.13,30.86 L124.12,28.59 L124.21,27.17 L122.89,26.89 L116.17,26.32 L112.00,26.51 L110.49,23.48 L110.30,19.88 L109.44,19.31 L108.12,19.79 L105.94,19.69 L104.62,20.83 L105.56,23.20 L103.29,24.52 L101.30,24.80 L99.22,27.08 L97.89,27.08 L95.91,26.13 L95.05,26.98 L94.49,29.63 L93.25,31.34 L91.64,31.91 L89.94,31.72 L89.18,34.08 L90.04,35.31 L93.07,36.36 L93.16,37.49 L90.98,37.68 L88.43,40.33 L85.30,41.09 L82.18,45.35 L80.47,45.92 L78.96,45.92 L77.35,46.58 L76.97,47.34 L77.35,50.18 L76.12,52.54 L74.98,53.11 L70.15,52.45 L69.21,53.02 L68.73,56.90 L67.98,60.40 L67.12,61.63 L64.19,62.58 L64.28,63.53 L65.61,63.72 L65.99,65.61 L65.42,67.41 L64.00,69.21 L62.96,69.68 L60.21,69.30 L57.18,68.45 L55.76,66.65 L53.87,67.41 L53.40,69.40 L55.86,71.76 L58.51,73.56 L57.75,75.93 L58.32,76.97 L57.85,78.39 L54.82,77.25 L53.87,77.25 L52.83,78.58 L52.73,79.81 L51.12,80.38 L49.51,79.53 L47.53,79.81 L46.49,82.46 L44.97,84.17 L44.21,89.75 L45.82,92.02 L47.62,93.44 L47.15,95.24 L48.47,96.57 L49.33,98.84 L49.23,100.64 L50.37,103.20 L50.65,104.90 L50.93,109.35 L51.88,112.95 L54.53,113.70 L57.47,117.78 L57.47,125.07 L57.85,126.77 L57.75,130.08 L56.80,133.11 L57.09,135.10 L55.29,138.70 L53.87,140.21 L50.56,141.35 L48.28,143.81 L46.20,148.54 L47.05,151.86 L46.39,152.80 L46.39,155.64 L45.54,157.07 L46.39,158.96 L48.66,159.81 L49.99,161.14 L52.45,161.80 L53.02,162.84 L52.92,164.92 L54.53,167.10 L53.96,168.62 L54.34,169.47 L56.80,170.89 L58.13,172.12 L58.98,173.92 L61.82,174.58 L64.38,173.82 L64.66,175.81 L66.27,178.46 L67.41,179.12 L68.92,178.84 L70.34,179.88 L74.13,178.18 L75.83,186.32 L77.63,188.78 L77.63,190.58 L76.78,191.81 L81.14,199.10 L82.84,199.48 L84.54,202.51 L86.25,202.41 L87.57,201.56 L90.13,203.27 L99.12,199.76 L137.18,238.39 L137.28,240.28 L138.04,243.22 L138.98,244.54 L143.43,244.73 L144.57,246.25 L144.76,248.62 L145.33,250.13 L144.66,251.27 L148.92,290.84 L153.66,334.11 L157.07,365.73 L155.93,380.02 L156.02,384.85 L156.88,382.30 L158.39,381.35 L159.91,381.82 L163.98,379.64 L164.92,378.22 L167.95,378.70 L169.75,380.78 L174.11,382.96 L176.47,383.53 L177.04,385.89 L179.22,386.56 L180.64,387.69 L182.15,386.27 L184.80,385.70 L186.41,385.99 L186.32,384.47 L188.31,382.11 L189.82,379.74 L193.80,377.37 L194.37,376.43 L194.65,374.44 L194.08,368.38 L195.31,365.54 L196.73,367.34 L198.15,368.38 L199.86,367.91 L201.37,368.57 L202.89,367.15 L204.31,367.62 L206.49,367.34 L207.34,366.67 L208.38,364.59 L211.12,367.43 L215.01,371.88 L216.33,372.73 L218.60,373.49 L220.78,374.53 L221.82,376.33 L222.49,384.57 L219.46,390.53 L221.54,400.00 L227.12,396.69 L227.41,392.90 L227.31,390.82 L237.92,385.04 L242.46,382.30 L245.11,379.74 L245.78,377.09 L244.64,375.29 L242.46,373.87 L243.31,372.36 L242.08,370.18 L241.99,362.41 L246.91,361.47 L249.28,360.80 L250.98,360.99 L251.64,361.94 L254.58,361.37 L259.41,361.37 L262.15,361.56 L265.09,360.90 L267.64,361.47 L267.93,366.11 L267.27,368.47 L267.64,371.03 L268.78,371.69 L271.24,371.50 L272.47,372.73 L274.08,372.92 L277.02,371.41 L278.82,371.03 L280.62,370.08 L290.08,368.85 Z" stroke="currentColor" stroke-width="2" stroke-linejoin="round" fill="currentColor" fill-opacity="0.15"/>
</svg>
