<svg xmlns="http://www.w3.org/2000/svg" viewBox="0 0 400 400" fill="none">
  <path d="M20.07,360.83 L43.08,365.73 L54.83,364.75 L61.69,366.71 L73.44,363.77 L83.72,375.03 L94.98,374.54 L105.26,386.29 L118.97,380.91 L130.23,382.37 L137.09,389.72 L145.90,388.74 L150.80,385.31 L158.63,391.19 L175.28,400.00 L186.05,392.66 L191.43,396.08 L203.67,395.10 L215.42,392.17 L225.70,375.03 L234.03,373.07 L244.31,362.30 L236.96,346.14 L241.37,341.25 L240.88,326.07 L246.76,307.96 L247.25,299.63 L250.67,296.21 L261.44,294.25 L268.30,288.86 L275.64,271.24 L285.92,262.42 L303.06,253.61 L314.81,244.31 L318.73,237.94 L315.79,233.54 L321.18,219.83 L321.18,212.97 L327.54,206.12 L326.07,201.71 L335.37,194.37 L348.10,178.70 L363.28,172.83 L375.03,160.10 L373.56,147.86 L368.18,135.62 L369.16,127.29 L376.01,113.10 L373.56,105.26 L366.22,97.92 L372.58,91.06 L379.93,76.87 L357.41,73.93 L337.33,82.25 L330.48,92.04 L313.83,97.92 L270.75,66.10 L275.64,54.35 L281.03,46.51 L289.35,29.87 L276.13,28.89 L270.26,25.95 L262.42,26.93 L247.25,40.64 L242.84,49.45 L226.68,59.73 L220.81,53.86 L207.10,44.06 L207.10,29.87 L198.78,23.99 L190.94,9.79 L191.43,3.43 L187.03,0.00 L174.79,5.39 L173.32,9.79 L161.57,15.67 L159.61,19.58 L148.35,9.79 L141.98,11.26 L140.02,28.89 L140.02,42.59 L138.56,54.83 L131.70,66.59 L118.97,76.38 L121.91,96.94 L121.42,110.65 L108.20,118.97 L106.73,122.89 L109.67,133.17 L105.26,150.31 L96.45,159.61 L99.39,166.46 L111.63,168.42 L112.12,175.76 L116.52,179.19 L116.03,191.43 L129.74,198.78 L131.70,210.53 L137.58,213.95 L142.47,223.26 L148.84,219.34 L153.73,221.30 L151.77,234.52 L159.12,235.50 L167.44,244.31 L180.66,244.80 L188.00,250.18 L190.94,260.47 L182.13,271.24 L161.08,286.41 L145.41,289.35 L136.11,288.86 L123.38,303.06 L113.59,311.38 L92.53,332.93 L73.93,342.72 L43.57,350.55 L25.95,356.43 L20.07,360.83 Z" stroke="currentColor" stroke-width="2" stroke-linejoin="round" fill="currentColor" fill-opacity="0.15"/>
</svg>
