<svg xmlns="http://www.w3.org/2000/svg" viewBox="0 0 400 400" fill="none">
  <path d="M312.87,340.05 L313.38,337.17 L309.14,334.12 L309.82,331.58 L308.13,324.64 L305.25,320.91 L303.39,316.85 L303.90,313.29 L301.69,310.41 L303.05,305.84 L302.20,304.32 L298.81,301.78 L296.27,296.19 L294.92,294.50 L295.94,291.62 L300.17,293.48 L300.85,295.85 L305.76,296.36 L308.13,295.51 L309.48,289.92 L315.92,290.60 L318.29,287.89 L316.26,280.61 L313.21,280.27 L310.50,277.56 L312.36,274.51 L316.43,273.16 L319.64,269.60 L324.72,271.30 L327.60,269.43 L330.65,269.26 L331.33,268.08 L338.61,270.79 L340.98,271.13 L342.00,274.17 L345.22,276.88 L347.42,277.05 L349.79,273.84 L353.01,273.16 L355.38,274.85 L358.76,278.75 L360.80,276.71 L357.75,275.02 L352.50,269.26 L346.57,264.52 L345.22,260.97 L345.89,257.75 L345.05,253.18 L345.89,252.33 L342.85,248.26 L340.81,244.20 L339.46,243.69 L337.76,234.21 L332.51,227.43 L331.50,225.40 L332.35,222.02 L329.13,218.97 L328.28,216.09 L329.64,208.64 L338.10,205.08 L343.52,203.73 L342.17,197.63 L340.30,195.77 L340.30,192.55 L336.41,189.84 L339.63,186.79 L340.47,183.23 L339.29,181.03 L341.15,177.48 L340.64,174.60 L341.32,170.87 L337.26,162.91 L337.76,158.34 L340.14,156.99 L341.15,154.45 L345.55,152.41 L347.59,152.07 L352.67,148.01 L353.18,144.96 L355.72,145.64 L358.59,144.62 L362.49,140.90 L361.81,137.85 L366.55,132.94 L372.48,131.75 L372.31,129.04 L375.70,128.20 L377.56,126.16 L379.76,125.49 L382.13,121.93 L384.50,120.58 L384.00,118.37 L386.20,117.53 L384.84,114.99 L388.91,114.14 L388.40,112.11 L389.92,108.04 L392.13,105.84 L392.13,103.64 L397.88,103.13 L398.73,100.08 L398.73,94.67 L397.38,93.48 L389.75,92.80 L382.81,93.99 L374.34,93.31 L368.25,88.74 L367.57,85.35 L363.34,80.61 L361.30,74.85 L361.30,73.16 L365.03,68.59 L366.05,61.30 L364.18,59.10 L361.30,57.41 L360.29,52.84 L364.35,48.60 L364.69,43.69 L365.88,40.47 L363.17,37.26 L361.47,33.36 L361.81,28.79 L364.52,26.42 L363.84,23.88 L359.44,18.97 L356.56,17.10 L355.04,15.07 L353.51,7.62 L354.70,5.42 L354.02,3.56 L350.97,0.34 L348.43,0.00 L345.89,2.20 L342.34,1.86 L338.27,3.05 L331.33,7.28 L326.42,8.13 L321.85,7.11 L316.93,12.70 L316.43,16.26 L313.55,18.46 L312.19,21.68 L306.77,23.03 L302.54,22.02 L298.81,20.32 L296.44,20.32 L293.40,23.37 L289.84,25.91 L288.99,29.97 L289.50,35.06 L287.30,37.43 L284.76,37.43 L285.77,42.68 L283.23,45.22 L280.52,45.89 L276.97,44.71 L270.70,46.57 L269.86,48.77 L272.90,51.48 L271.89,55.21 L267.49,58.26 L266.81,61.30 L262.74,66.72 L261.39,69.77 L259.02,71.80 L253.94,70.45 L250.89,71.97 L250.21,73.67 L251.23,77.22 L249.20,78.58 L247.16,83.83 L243.61,84.00 L241.57,86.54 L239.54,91.62 L238.02,93.82 L233.95,95.51 L233.11,97.71 L234.97,101.95 L236.66,104.15 L232.77,106.86 L230.57,107.54 L224.64,111.26 L223.62,113.12 L224.13,115.33 L220.07,114.99 L218.04,113.12 L215.16,114.14 L216.17,116.34 L214.14,121.25 L211.43,123.79 L208.21,128.37 L208.55,129.89 L211.77,133.11 L214.31,136.33 L215.33,140.90 L213.97,143.61 L209.06,141.74 L201.78,142.93 L198.22,140.73 L192.13,140.05 L185.01,141.74 L180.10,140.90 L176.21,141.07 L174.68,140.05 L171.80,142.76 L168.92,143.44 L165.20,148.35 L162.15,149.36 L157.92,147.84 L155.04,149.53 L153.51,149.36 L150.47,145.81 L143.52,142.59 L142.85,139.71 L143.35,135.82 L142.34,130.23 L140.47,128.54 L138.10,128.54 L133.36,126.67 L127.94,125.83 L124.89,129.21 L121.17,131.41 L116.26,132.43 L113.21,132.26 L108.64,133.95 L106.10,137.34 L102.37,138.19 L94.24,135.99 L90.18,136.66 L86.28,136.49 L83.91,138.87 L78.49,142.93 L72.40,145.47 L69.01,147.84 L63.93,149.03 L61.05,151.40 L59.36,152.41 L57.15,157.32 L58.17,161.22 L55.12,163.76 L49.87,169.35 L45.98,171.72 L44.45,174.26 L44.62,178.83 L45.30,181.03 L45.64,186.62 L43.61,189.16 L43.78,191.53 L40.90,193.06 L36.16,198.48 L33.28,200.17 L29.89,204.91 L25.99,209.14 L25.66,211.18 L27.86,216.26 L25.32,222.18 L25.99,227.10 L25.49,229.81 L22.61,232.35 L19.73,231.84 L16.68,235.73 L14.14,235.73 L8.21,239.63 L7.71,241.32 L10.25,244.20 L9.06,245.39 L8.04,250.64 L9.74,259.95 L7.54,263.51 L6.52,266.55 L5.00,268.42 L6.86,269.77 L8.21,272.82 L11.09,274.01 L10.41,279.25 L10.41,283.83 L7.87,285.35 L7.54,292.63 L4.83,297.21 L5.00,300.93 L1.78,305.33 L1.27,309.91 L1.61,313.12 L3.64,316.51 L6.18,323.12 L8.21,324.64 L10.41,329.89 L13.63,332.94 L16.51,336.83 L16.51,339.37 L17.70,341.57 L18.04,345.13 L17.19,347.84 L17.70,351.74 L17.02,355.97 L17.87,362.74 L19.56,365.45 L19.39,372.73 L18.54,376.80 L16.00,381.54 L15.83,382.90 L20.41,390.35 L20.91,394.92 L27.01,400.00 L30.74,396.10 L34.80,394.75 L41.41,393.73 L43.27,392.89 L47.16,389.16 L50.38,385.44 L50.89,383.57 L53.94,380.69 L59.53,376.80 L63.59,371.72 L72.73,367.99 L76.80,364.44 L81.54,358.34 L84.08,356.31 L86.62,356.14 L89.33,353.26 L93.23,351.23 L99.49,348.52 L102.20,346.99 L107.79,346.32 L115.92,344.45 L122.86,343.78 L131.50,342.25 L140.30,344.96 L145.55,344.12 L154.87,343.78 L157.58,344.96 L163.51,346.32 L169.60,349.36 L178.75,352.92 L183.15,353.77 L187.89,354.11 L191.28,353.26 L193.48,353.77 L203.47,352.07 L211.26,350.38 L219.22,348.01 L223.29,349.20 L226.67,348.69 L230.74,346.66 L228.87,343.78 L229.38,341.74 L233.62,342.93 L233.95,344.28 L239.88,341.91 L239.71,337.85 L245.47,335.48 L248.35,336.66 L253.60,337.34 L258.17,339.54 L259.19,337.17 L264.61,336.49 L269.86,332.94 L272.40,332.77 L273.24,334.80 L277.14,335.82 L277.31,337.00 L273.92,339.03 L275.95,341.41 L276.63,343.78 L279.51,344.79 L280.36,342.76 L282.90,345.81 L280.86,348.01 L283.57,350.38 L279.85,351.74 L279.17,357.66 L280.69,359.36 L284.59,357.49 L288.48,360.54 L288.82,358.51 L290.86,354.45 L296.10,356.14 L298.48,353.60 L304.06,350.04 L309.48,352.92 L311.01,352.41 L313.55,348.52 L312.36,343.61 L313.55,341.91 L312.87,340.05 Z" stroke="currentColor" stroke-width="2" stroke-linejoin="round" fill="currentColor" fill-opacity="0.15"/>
</svg>
