<svg xmlns="http://www.w3.org/2000/svg" viewBox="0 0 400 400" fill="none">
  <path d="M69.25,356.56 L70.10,356.35 L191.40,320.87 L192.46,324.06 L195.65,328.73 L199.26,329.58 L201.81,333.40 L204.99,340.20 L208.82,344.66 L208.82,348.91 L215.83,359.53 L220.71,362.72 L222.84,361.23 L227.51,360.17 L232.18,354.65 L233.24,348.49 L235.79,348.70 L237.28,353.37 L237.07,361.66 L240.89,360.17 L242.59,362.93 L241.53,368.88 L243.87,370.79 L245.78,368.88 L251.73,369.30 L252.58,372.70 L255.12,374.19 L261.50,369.52 L270.21,360.17 L269.57,353.16 L267.02,347.85 L281.68,341.05 L291.45,342.33 L290.39,347.21 L291.45,351.46 L293.79,353.80 L295.27,359.32 L296.76,360.81 L300.58,361.02 L298.88,369.30 L292.94,377.80 L295.70,383.11 L298.88,385.02 L302.50,384.81 L307.59,381.20 L313.33,380.56 L316.94,382.05 L322.46,388.64 L324.59,391.82 L326.08,396.71 L328.20,398.19 L333.30,397.34 L339.03,394.58 L343.07,390.76 L347.53,377.16 L351.35,369.94 L357.94,361.87 L358.15,359.53 L363.25,358.26 L364.95,354.86 L367.92,354.65 L369.41,351.67 L371.53,350.19 L377.48,342.33 L380.88,333.62 L383.86,318.96 L384.71,310.67 L383.86,302.60 L383.01,298.99 L382.16,290.28 L382.58,287.31 L381.09,277.75 L384.49,266.49 L385.98,254.38 L388.74,248.22 L391.08,238.24 L392.78,232.50 L400.00,212.75 L394.69,210.83 L389.80,210.20 L392.14,206.59 L394.26,201.27 L388.95,199.15 L387.89,196.81 L389.80,191.50 L385.34,190.02 L380.46,187.25 L372.81,184.07 L359.43,183.22 L349.65,184.71 L348.17,184.07 L339.67,173.87 L327.14,174.93 L324.80,175.57 L317.37,175.57 L311.84,176.85 L309.93,175.36 L306.11,177.70 L301.86,174.93 L299.73,175.36 L297.19,168.14 L307.17,160.70 L307.17,157.94 L304.62,147.11 L302.50,151.35 L300.58,157.51 L298.46,156.88 L294.42,158.79 L290.60,154.33 L289.75,151.57 L292.94,143.28 L291.02,137.97 L293.57,131.17 L291.87,126.50 L293.57,121.19 L296.34,119.92 L290.18,117.79 L287.41,116.09 L284.23,109.51 L285.08,108.44 L285.50,98.88 L285.08,95.06 L286.99,92.94 L286.56,86.99 L288.26,85.08 L284.01,81.25 L282.10,81.04 L278.07,76.79 L274.67,77.22 L273.82,74.24 L271.06,72.97 L269.57,69.14 L266.38,70.63 L263.20,69.14 L262.35,66.81 L267.23,61.50 L268.08,56.82 L265.11,51.73 L266.38,49.81 L261.71,49.60 L257.04,54.28 L254.28,49.39 L251.09,48.75 L250.66,45.57 L247.69,43.65 L242.17,44.29 L240.25,42.38 L235.58,40.47 L236.64,36.22 L228.78,34.52 L229.00,30.27 L227.30,29.63 L223.26,24.75 L221.14,24.32 L219.44,18.37 L220.92,15.40 L216.68,15.83 L214.34,12.64 L210.52,16.04 L205.63,19.01 L200.53,19.22 L199.26,16.68 L195.86,16.46 L192.25,10.09 L186.30,11.36 L185.02,9.24 L180.14,8.60 L180.14,6.48 L177.16,2.87 L170.79,1.81 L149.97,7.12 L117.68,16.25 L101.96,21.99 L89.22,26.23 L85.40,65.11 L82.63,70.21 L70.95,92.30 L46.10,138.61 L20.39,187.47 L0.00,226.55 L20.61,252.68 L47.80,285.40 L63.52,305.15 L66.28,309.61 L64.58,313.65 L61.82,314.29 L61.18,318.53 L63.94,319.60 L64.37,324.06 L62.88,328.52 L68.83,338.71 L72.23,349.76 L71.59,352.95 L69.25,356.56 Z" stroke="currentColor" stroke-width="2" stroke-linejoin="round" fill="currentColor" fill-opacity="0.15"/>
</svg>
