<svg xmlns="http://www.w3.org/2000/svg" viewBox="0 0 400 400" fill="none">
  <path d="M253.23,400.00 L250.56,395.99 L237.19,383.07 L240.76,367.04 L244.77,353.67 L259.02,327.84 L268.37,316.26 L281.29,305.57 L295.99,301.11 L312.92,278.40 L333.85,257.46 L342.76,237.86 L349.44,208.91 L351.22,194.65 L358.35,181.74 L351.67,170.16 L351.67,160.36 L357.46,138.53 L362.81,131.85 L368.60,116.26 L370.38,104.23 L374.39,89.98 L379.29,82.41 L383.30,69.04 L384.63,57.46 L388.20,38.75 L392.65,27.62 L398.00,19.60 L385.52,13.81 L381.96,14.70 L354.34,26.73 L341.43,27.62 L320.04,11.14 L321.83,9.35 L295.99,0.00 L276.39,1.34 L270.16,31.63 L264.37,55.23 L277.73,54.79 L294.65,57.46 L240.76,88.20 L237.19,88.64 L222.05,57.02 L199.78,68.15 L212.69,95.32 L198.44,96.21 L196.66,99.33 L198.00,113.14 L195.32,115.81 L186.86,116.26 L175.28,110.02 L171.27,101.11 L157.91,93.54 L149.00,96.21 L98.22,93.54 L60.36,106.46 L55.46,106.46 L28.73,111.36 L15.37,110.02 L16.26,122.49 L10.02,126.06 L2.90,135.41 L5.12,141.20 L2.00,148.33 L34.97,170.16 L40.76,178.62 L46.55,184.41 L49.22,190.20 L68.82,203.56 L81.29,211.14 L89.31,208.91 L97.33,214.70 L108.46,216.93 L117.37,216.93 L127.62,221.38 L132.52,225.39 L139.64,227.17 L152.12,240.98 L159.69,244.99 L167.26,254.79 L169.49,273.50 L198.00,278.84 L195.77,292.20 L185.52,324.72 L183.74,334.52 L186.41,342.98 L236.75,384.41 L253.23,400.00 Z" stroke="currentColor" stroke-width="2" stroke-linejoin="round" fill="currentColor" fill-opacity="0.15"/>
</svg>
