<svg xmlns="http://www.w3.org/2000/svg" viewBox="0 0 400 400" fill="none">
  <path d="M137.89,400.00 L138.95,398.14 L137.09,392.30 L137.89,386.99 L134.17,383.28 L137.09,378.50 L134.97,375.58 L134.97,371.60 L140.81,359.39 L140.54,355.67 L145.06,345.85 L143.46,341.87 L138.95,337.62 L141.61,333.38 L161.25,330.72 L163.90,332.58 L167.35,329.66 L171.33,329.40 L172.93,325.95 L178.23,323.29 L181.69,316.92 L189.65,316.12 L192.30,314.00 L195.75,308.16 L199.20,307.37 L206.90,308.69 L208.49,304.71 L215.39,298.87 L229.99,296.48 L231.59,292.77 L233.18,283.21 L236.89,282.42 L241.14,277.37 L245.39,276.84 L246.72,279.50 L250.96,278.70 L252.02,273.92 L254.68,272.59 L255.74,267.82 L258.39,264.90 L258.66,261.71 L264.23,256.40 L266.62,248.18 L264.76,243.13 L267.95,240.48 L263.44,233.31 L263.44,224.02 L265.56,213.67 L263.17,205.44 L265.03,197.21 L263.70,190.05 L264.76,187.92 L272.46,180.76 L274.32,175.71 L279.10,177.31 L287.59,177.84 L291.04,177.04 L295.29,173.32 L299.27,164.57 L289.18,165.63 L283.08,162.71 L283.34,156.60 L278.83,154.48 L270.60,152.36 L271.40,147.58 L270.34,145.45 L265.83,143.60 L263.97,139.35 L259.72,137.76 L259.99,134.57 L254.15,127.41 L254.68,125.28 L260.78,114.93 L265.30,110.42 L271.40,109.89 L271.67,105.11 L276.71,100.33 L275.38,97.15 L269.01,95.55 L265.03,92.63 L260.52,92.90 L250.17,88.92 L248.04,87.33 L244.06,75.38 L238.49,67.68 L238.22,61.05 L236.89,56.80 L238.75,48.84 L236.63,43.26 L233.71,40.35 L224.68,35.57 L224.95,32.38 L222.83,27.07 L225.48,15.93 L230.79,12.48 L232.65,7.70 L237.16,0.00 L232.91,1.06 L228.67,5.84 L228.40,8.23 L221.23,16.72 L214.86,18.05 L210.09,17.52 L206.90,14.60 L202.92,19.64 L197.35,20.70 L193.10,19.38 L186.46,12.48 L179.83,8.23 L173.72,11.41 L169.21,11.94 L167.35,17.52 L167.88,23.62 L166.29,30.52 L161.78,32.12 L159.92,34.51 L159.12,40.35 L162.04,48.04 L160.72,50.17 L155.14,53.62 L153.82,59.19 L154.88,62.64 L159.12,67.15 L157.53,70.07 L154.35,69.81 L147.18,72.99 L143.73,80.42 L142.67,85.73 L140.28,92.10 L135.24,95.55 L127.27,105.11 L125.68,109.62 L126.74,115.20 L129.13,116.52 L131.52,121.83 L136.56,127.67 L136.03,136.96 L131.79,143.07 L123.56,147.05 L115.33,155.01 L112.94,159.52 L112.41,165.36 L112.14,172.53 L114.80,176.78 L114.80,185.80 L112.67,191.11 L112.41,200.13 L112.67,214.73 L111.35,221.37 L104.18,225.88 L102.06,230.39 L103.92,234.11 L100.73,240.21 L102.85,244.99 L103.38,250.56 L105.51,253.75 L105.51,261.98 L103.92,266.49 L111.35,275.78 L110.55,284.80 L114.80,291.17 L120.37,294.63 L119.84,300.73 L117.72,304.71 L118.51,308.16 L117.19,313.47 L112.67,319.31 L110.82,324.88 L112.67,327.80 L114.53,330.99 L115.33,336.56 L114.27,343.46 L123.56,347.45 L122.76,351.96 L123.29,358.59 L119.84,363.90 L111.88,372.93 L110.82,376.38 L115.06,383.28 L124.62,388.32 L130.19,388.59 L137.89,400.00 Z" stroke="currentColor" stroke-width="2" stroke-linejoin="round" fill="currentColor" fill-opacity="0.15"/>
</svg>
