<svg xmlns="http://www.w3.org/2000/svg" viewBox="0 0 400 400" fill="none">
  <path d="M222.10,331.25 L227.79,331.82 L239.17,329.73 L241.25,329.73 L257.37,324.23 L278.99,325.37 L282.79,324.23 L288.48,327.45 L290.18,331.25 L295.12,333.90 L298.72,333.71 L299.86,332.57 L299.29,326.70 L300.05,325.37 L306.12,324.99 L300.62,313.42 L310.10,308.68 L316.55,322.14 L318.07,321.95 L341.01,308.87 L333.81,307.73 L328.12,307.92 L330.58,297.87 L333.24,284.97 L341.58,284.40 L352.58,288.38 L351.83,289.14 L360.93,296.16 L366.43,295.78 L378.19,290.66 L379.71,290.28 L385.02,292.75 L384.26,289.14 L384.45,282.69 L387.10,278.71 L389.95,276.43 L389.19,274.35 L391.28,272.64 L392.60,264.49 L394.88,261.26 L393.93,259.74 L394.88,257.28 L393.36,255.19 L394.12,249.88 L396.78,247.61 L395.26,246.47 L396.21,242.11 L397.91,241.35 L398.10,237.36 L399.81,229.40 L400.00,224.28 L399.81,213.66 L398.10,204.55 L396.21,200.19 L392.79,194.69 L390.90,188.24 L391.09,182.74 L393.36,170.60 L392.79,162.26 L393.17,158.27 L391.65,151.26 L390.33,148.41 L386.91,143.48 L379.52,135.14 L375.72,128.12 L373.83,122.05 L372.88,115.41 L372.88,109.53 L373.64,101.75 L373.07,96.06 L370.98,88.29 L368.90,74.63 L366.24,66.86 L363.02,66.10 L360.36,68.37 L361.88,75.01 L360.17,76.53 L360.36,80.13 L359.41,89.24 L359.03,98.91 L360.93,107.06 L359.60,110.67 L354.29,115.98 L339.12,123.19 L333.62,126.60 L332.48,130.01 L333.05,134.19 L332.10,137.60 L328.69,142.15 L325.84,147.84 L320.53,159.98 L317.69,163.02 L312.57,163.77 L313.32,170.41 L314.46,173.26 L322.43,175.34 L322.81,178.19 L319.01,183.88 L318.26,188.24 L320.72,191.65 L322.05,195.07 L322.43,199.05 L320.53,200.76 L313.51,202.47 L310.29,200.95 L302.13,199.24 L300.24,199.62 L285.44,206.26 L280.13,207.21 L277.10,207.21 L274.44,204.74 L270.27,202.66 L266.67,203.22 L264.77,204.93 L260.98,205.12 L257.94,208.72 L257.94,210.43 L255.10,214.60 L256.42,216.12 L257.18,220.10 L252.63,232.43 L249.41,236.98 L245.05,238.12 L240.49,241.92 L236.32,247.98 L232.34,248.93 L229.49,248.55 L224.75,245.90 L224.56,240.02 L223.99,237.36 L221.91,234.14 L218.49,232.05 L213.37,232.05 L207.11,236.23 L203.70,237.55 L196.49,234.14 L194.03,231.29 L194.22,229.78 L190.61,228.26 L184.35,227.88 L175.06,230.35 L169.37,228.64 L166.33,227.12 L157.99,220.67 L153.63,218.59 L144.90,219.35 L138.83,218.59 L135.23,216.31 L133.14,211.00 L131.06,210.24 L124.99,212.14 L114.56,213.85 L95.40,217.64 L86.11,218.97 L81.18,218.78 L63.73,216.69 L44.00,212.14 L24.09,210.62 L19.54,211.00 L16.31,212.71 L13.66,215.17 L11.38,219.54 L11.76,225.04 L10.62,229.59 L0.00,237.17 L3.98,244.76 L8.16,244.00 L10.05,241.54 L15.36,241.16 L18.78,242.29 L26.93,233.57 L28.64,229.78 L34.90,228.45 L39.45,229.21 L45.14,228.26 L47.23,229.78 L51.21,229.78 L56.90,233.38 L58.61,236.04 L61.83,238.12 L63.92,237.93 L65.62,239.83 L66.57,243.81 L70.74,243.05 L72.64,245.71 L75.11,246.85 L76.06,249.50 L76.06,253.30 L80.23,254.24 L81.93,257.47 L84.78,258.42 L87.81,255.38 L90.85,256.90 L92.18,256.14 L97.49,258.61 L102.04,255.76 L106.02,256.33 L108.49,258.42 L111.90,258.80 L113.99,256.71 L116.45,259.17 L119.87,259.93 L125.94,256.71 L128.59,254.62 L134.28,253.11 L137.70,248.93 L141.11,247.98 L146.04,248.93 L149.27,247.98 L151.73,243.24 L155.52,239.45 L156.66,236.61 L161.59,238.12 L163.11,237.36 L167.28,237.55 L167.66,239.26 L170.70,240.59 L172.21,239.83 L176.20,243.43 L179.99,241.54 L184.16,242.29 L185.87,244.38 L190.61,246.85 L194.22,247.23 L196.30,248.36 L198.96,247.80 L200.09,244.95 L203.89,244.19 L205.97,245.90 L213.56,248.74 L217.73,246.66 L219.44,248.55 L227.22,254.81 L227.03,258.61 L228.35,261.83 L231.01,264.11 L229.11,281.37 L223.99,313.04 L222.85,322.71 L222.10,331.25 Z" stroke="currentColor" stroke-width="2" stroke-linejoin="round" fill="currentColor" fill-opacity="0.15"/>
</svg>
