<svg xmlns="http://www.w3.org/2000/svg" viewBox="0 0 400 400" fill="none">
  <path d="M138.72,384.13 L139.42,384.92 L141.98,386.18 L145.15,388.27 L154.50,392.69 L163.07,394.79 L168.05,395.76 L169.40,396.28 L170.93,397.25 L172.10,397.81 L175.63,399.12 L179.26,399.91 L181.55,400.00 L182.71,399.81 L184.66,399.12 L188.34,397.16 L192.53,393.81 L193.46,393.25 L195.32,392.55 L198.16,391.99 L199.88,392.69 L200.95,392.88 L203.23,392.93 L205.05,392.55 L208.54,391.20 L212.92,388.36 L214.36,386.87 L216.36,384.22 L217.06,382.96 L217.85,381.10 L218.55,376.54 L219.43,373.52 L219.90,372.59 L221.11,371.00 L224.13,368.40 L225.34,367.88 L227.67,367.65 L229.53,367.14 L232.46,365.19 L233.91,364.77 L235.96,365.32 L238.19,365.74 L240.19,365.42 L241.21,365.74 L244.80,367.09 L246.38,367.93 L247.36,369.00 L249.22,370.40 L250.90,371.10 L252.53,371.28 L253.87,371.00 L254.62,369.79 L255.50,367.65 L259.32,364.39 L260.39,363.04 L260.81,361.79 L260.90,360.11 L263.28,355.50 L267.14,346.66 L268.72,343.82 L269.75,342.42 L271.10,341.26 L274.40,339.77 L275.70,339.35 L277.01,339.12 L278.82,339.54 L280.03,340.10 L280.87,340.80 L283.24,344.15 L284.50,345.22 L289.48,348.48 L298.74,351.50 L302.33,351.78 L304.51,351.22 L305.72,350.71 L306.75,349.78 L309.31,346.85 L313.87,342.75 L315.69,339.96 L316.24,338.38 L316.01,336.79 L314.94,334.33 L314.61,331.21 L314.71,329.49 L315.17,327.53 L316.85,323.06 L320.06,317.62 L323.13,308.96 L325.32,306.68 L327.55,303.47 L328.35,301.51 L329.51,297.60 L329.51,295.23 L330.95,292.39 L330.91,288.29 L331.32,284.57 L331.74,282.85 L332.95,279.59 L333.98,274.66 L336.54,266.46 L338.40,261.62 L338.59,259.86 L337.89,254.88 L336.86,252.13 L335.33,248.73 L334.86,247.47 L334.77,246.03 L335.09,243.52 L336.96,235.93 L338.17,229.88 L339.93,225.41 L341.84,219.22 L342.82,216.71 L344.45,213.59 L345.99,211.45 L347.66,209.31 L348.64,208.28 L352.55,204.65 L356.23,202.09 L358.32,201.12 L360.37,200.56 L363.81,200.70 L367.54,201.63 L372.28,203.63 L374.42,204.93 L374.75,203.86 L374.10,201.16 L372.38,200.37 L370.79,198.79 L369.26,197.67 L368.70,195.16 L367.95,193.16 L364.37,190.88 L363.25,189.62 L363.16,188.60 L363.95,187.39 L364.09,185.99 L363.49,183.24 L362.46,181.48 L360.69,179.33 L358.60,176.03 L357.11,175.52 L354.74,172.96 L352.41,171.56 L350.50,170.82 L348.92,171.38 L348.22,172.40 L347.80,172.73 L345.89,174.63 L345.38,175.89 L344.92,176.12 L343.70,177.38 L340.59,179.33 L339.66,179.10 L337.65,175.75 L335.93,175.19 L335.42,173.89 L333.19,172.77 L333.56,171.61 L333.56,170.58 L333.28,170.07 L332.35,169.09 L332.77,166.21 L334.81,163.84 L335.00,162.67 L334.91,161.88 L333.70,159.69 L333.33,158.62 L331.65,157.09 L330.86,156.85 L330.44,156.48 L330.30,155.46 L329.65,154.01 L330.49,152.53 L331.28,151.87 L331.84,150.24 L332.63,149.55 L332.86,147.31 L333.19,146.80 L333.70,146.75 L335.47,147.54 L336.63,147.50 L338.49,145.73 L339.14,144.66 L340.59,144.10 L341.52,144.05 L344.12,143.08 L345.01,142.38 L345.24,141.73 L344.78,140.89 L343.66,140.19 L343.80,138.65 L344.59,136.61 L344.40,135.54 L343.29,133.44 L343.29,131.77 L343.52,130.88 L344.50,129.35 L341.28,125.53 L339.10,124.13 L338.82,122.78 L338.40,122.32 L337.51,121.76 L336.63,120.69 L334.49,119.71 L333.74,119.06 L333.19,118.27 L332.95,117.01 L333.00,115.66 L332.72,115.06 L331.37,114.36 L330.11,114.55 L329.56,114.45 L327.74,112.82 L326.67,111.19 L325.18,110.82 L324.16,110.82 L323.55,110.59 L321.92,110.50 L320.85,111.61 L319.87,112.22 L317.04,111.38 L315.41,111.19 L314.06,111.43 L313.59,111.75 L312.10,111.61 L311.54,111.75 L311.03,111.43 L309.36,111.29 L308.84,110.77 L308.10,110.54 L307.73,109.56 L307.35,109.15 L306.47,109.19 L306.19,108.82 L306.38,108.08 L305.72,107.94 L305.17,107.42 L303.54,107.28 L303.07,107.05 L303.35,106.12 L302.47,105.89 L302.51,105.14 L303.03,104.68 L302.93,103.23 L303.35,102.68 L303.49,101.47 L304.33,100.12 L304.42,98.95 L302.89,98.35 L302.61,97.93 L303.16,97.14 L302.56,94.11 L302.61,92.58 L303.58,91.51 L303.35,90.39 L302.28,89.55 L301.91,88.76 L301.02,89.09 L300.70,88.90 L300.00,87.92 L299.39,87.78 L298.23,87.88 L297.39,87.04 L296.65,87.74 L296.28,87.64 L294.93,85.69 L294.09,86.39 L293.39,86.15 L291.76,85.13 L291.11,84.24 L290.51,84.20 L289.29,83.50 L288.55,82.48 L288.83,81.41 L288.69,80.99 L287.57,80.34 L286.73,78.43 L286.78,78.19 L288.18,76.98 L288.50,75.91 L289.34,75.22 L289.48,74.28 L287.43,73.63 L286.46,72.66 L286.46,71.35 L287.34,70.14 L288.08,70.42 L288.55,69.86 L286.60,65.49 L285.29,63.86 L285.94,62.65 L285.48,61.48 L284.55,60.88 L285.11,59.76 L286.41,59.25 L287.29,58.60 L287.34,57.95 L286.32,56.32 L286.22,55.57 L286.73,54.92 L286.73,54.08 L287.76,53.39 L287.99,51.52 L288.83,48.64 L287.15,46.54 L287.48,44.82 L286.83,44.31 L287.71,43.38 L287.95,42.26 L288.41,41.10 L289.02,40.59 L289.02,39.75 L288.60,38.96 L289.02,37.61 L288.13,35.70 L288.74,35.14 L288.22,34.63 L288.64,33.84 L288.64,32.07 L288.18,31.56 L286.97,31.28 L285.71,30.63 L283.99,30.39 L283.29,29.74 L282.96,28.86 L282.50,25.32 L278.31,20.90 L277.85,20.76 L277.05,19.08 L276.96,17.36 L276.50,16.24 L275.42,15.27 L273.89,12.43 L271.70,9.77 L222.74,17.22 L201.98,20.39 L198.25,19.41 L118.71,0.00 L111.17,7.49 L73.56,44.96 L55.74,62.69 L47.50,70.93 L47.13,70.79 L44.24,69.26 L43.45,69.16 L41.31,70.14 L40.75,69.82 L40.75,68.33 L40.52,68.00 L39.35,67.40 L38.61,67.77 L39.07,68.70 L38.75,69.54 L37.21,70.33 L36.51,71.40 L35.07,71.72 L34.61,72.19 L34.33,72.98 L33.54,73.91 L33.12,75.31 L32.42,75.82 L32.00,76.61 L32.79,77.68 L32.42,78.94 L33.02,80.66 L32.93,82.90 L33.12,83.73 L32.32,86.43 L33.30,88.57 L32.74,91.55 L32.09,93.00 L32.00,93.55 L30.18,96.30 L28.97,97.00 L28.00,98.25 L26.46,99.56 L25.25,101.70 L27.16,102.58 L28.69,102.40 L30.18,103.05 L31.11,103.10 L38.28,99.46 L40.00,98.86 L41.45,98.63 L42.80,98.63 L43.77,99.46 L44.10,100.26 L44.80,102.86 L45.73,105.19 L49.50,108.63 L51.31,109.43 L52.01,113.10 L54.15,114.73 L54.39,115.20 L54.25,119.71 L54.81,121.20 L55.04,123.62 L55.97,124.60 L57.88,128.23 L59.51,129.81 L60.44,130.98 L61.00,133.12 L61.09,135.02 L61.46,135.96 L62.81,136.79 L65.51,137.58 L67.14,138.52 L68.40,139.59 L68.82,141.17 L68.77,143.73 L69.79,148.57 L70.72,151.04 L71.89,151.59 L73.42,151.73 L74.73,152.53 L75.24,153.13 L75.52,153.92 L75.52,155.50 L75.01,166.16 L75.05,167.14 L76.17,170.03 L77.01,171.33 L77.47,173.14 L77.85,173.80 L78.45,174.12 L79.71,175.52 L79.99,176.17 L82.13,177.85 L82.96,179.29 L83.24,180.13 L82.96,182.03 L83.34,185.01 L83.99,185.99 L84.59,186.41 L85.20,187.67 L84.36,189.11 L84.27,189.76 L85.29,191.06 L86.97,192.37 L87.53,193.02 L87.67,193.86 L87.48,196.46 L88.50,199.44 L87.99,201.95 L88.27,204.14 L89.43,205.68 L90.37,207.40 L89.43,210.71 L89.34,211.59 L89.48,212.43 L89.90,213.08 L90.69,213.50 L93.11,213.96 L94.23,215.22 L94.69,218.20 L95.11,218.85 L97.35,220.99 L99.77,221.41 L102.14,221.18 L104.14,221.27 L105.03,222.06 L105.07,223.69 L105.72,224.20 L106.84,223.83 L108.66,222.43 L109.82,222.11 L110.84,222.20 L113.45,223.27 L114.80,224.25 L116.38,224.99 L119.36,224.11 L119.08,225.51 L119.60,227.23 L118.94,228.86 L118.94,230.44 L119.22,231.00 L120.06,231.09 L122.34,230.11 L124.95,231.93 L125.74,232.21 L129.32,232.58 L130.67,232.95 L131.42,233.88 L131.60,234.44 L132.35,235.23 L135.42,237.51 L141.19,240.82 L142.91,241.33 L145.71,241.42 L148.27,240.63 L150.31,239.42 L151.71,239.00 L152.73,239.28 L153.80,240.91 L156.18,245.61 L158.69,248.08 L160.97,249.29 L161.07,249.94 L159.90,252.04 L158.79,255.48 L159.53,256.88 L158.83,258.51 L158.83,259.25 L159.67,260.79 L159.81,261.86 L159.48,263.07 L158.18,264.98 L157.20,265.49 L156.46,265.21 L155.95,266.60 L154.83,268.47 L154.18,270.51 L154.08,272.05 L154.36,273.35 L154.78,274.01 L148.87,282.90 L148.36,283.92 L149.99,284.20 L150.08,285.73 L150.69,287.46 L151.80,288.01 L152.08,288.62 L151.66,290.06 L150.41,292.25 L150.31,292.81 L150.83,294.86 L151.99,295.32 L153.85,295.00 L154.88,295.18 L155.06,295.88 L154.60,297.88 L153.57,299.65 L152.83,301.37 L152.32,303.89 L151.76,304.77 L149.38,306.12 L145.19,306.63 L143.01,307.89 L142.26,308.03 L141.75,308.77 L142.49,311.57 L142.40,312.36 L141.94,313.06 L139.24,315.06 L137.98,316.69 L136.44,317.62 L135.00,317.52 L134.16,316.97 L132.49,316.31 L131.65,315.57 L129.93,314.82 L128.39,313.38 L127.46,313.29 L126.34,314.36 L125.97,315.10 L126.02,315.89 L125.83,316.87 L125.32,317.76 L123.69,317.94 L122.95,318.36 L121.78,318.59 L120.81,319.62 L119.55,321.85 L120.20,322.83 L121.78,323.39 L126.11,327.53 L127.51,329.44 L128.44,332.05 L128.30,332.93 L126.86,334.98 L126.53,336.65 L126.76,337.40 L128.02,339.63 L128.07,340.56 L127.32,342.01 L125.09,345.03 L124.16,347.96 L124.44,349.69 L125.55,351.83 L126.02,353.64 L125.41,357.27 L125.27,359.74 L125.93,361.74 L125.74,362.76 L124.76,363.56 L123.74,364.16 L122.25,364.44 L119.41,366.26 L117.50,366.30 L116.38,366.72 L115.55,367.56 L115.64,368.82 L117.83,373.42 L118.06,374.96 L117.59,376.40 L115.69,379.94 L114.52,382.55 L113.40,383.48 L110.05,386.78 L114.38,385.94 L116.57,384.83 L118.80,384.13 L120.20,383.06 L122.62,381.80 L124.71,381.62 L131.60,382.22 L135.47,382.78 L138.72,384.13 Z" stroke="currentColor" stroke-width="2" stroke-linejoin="round" fill="currentColor" fill-opacity="0.15"/>
</svg>
