<svg xmlns="http://www.w3.org/2000/svg" viewBox="0 0 400 400" fill="none">
  <path d="M60.38,224.17 L65.69,225.06 L68.17,228.07 L68.17,229.84 L72.24,230.37 L73.31,232.14 L78.26,231.08 L81.27,236.39 L84.11,236.56 L85.17,238.69 L89.42,238.51 L93.49,236.03 L96.68,233.20 L98.63,235.86 L102.17,235.50 L100.93,237.98 L102.35,242.94 L104.12,243.29 L107.48,247.37 L108.90,247.90 L108.72,251.44 L115.27,252.86 L114.39,256.40 L118.28,257.99 L119.88,259.58 L124.48,259.05 L126.96,260.65 L127.31,263.30 L129.97,263.83 L132.27,267.91 L136.17,264.01 L140.06,264.19 L139.00,265.78 L141.48,270.03 L140.77,273.93 L136.70,278.35 L137.41,280.30 L140.06,281.54 L142.72,280.30 L143.96,283.49 L146.26,284.55 L146.97,287.03 L149.80,286.68 L153.17,290.22 L154.76,290.39 L158.30,293.58 L156.88,295.17 L157.24,300.13 L155.64,301.90 L156.00,305.09 L155.64,313.06 L154.94,313.94 L157.59,319.43 L159.89,320.85 L165.03,322.62 L162.73,323.68 L161.31,328.11 L162.73,332.01 L160.60,337.67 L162.20,342.10 L159.54,349.00 L160.25,351.31 L163.44,355.02 L166.80,353.43 L168.57,353.96 L170.16,348.83 L171.93,345.29 L174.06,354.32 L174.06,356.62 L165.74,362.82 L167.86,368.84 L169.63,368.48 L173.17,370.78 L176.36,368.84 L177.95,370.08 L182.56,369.01 L188.76,369.01 L190.70,368.48 L201.15,367.60 L208.23,376.10 L209.47,376.63 L217.62,375.39 L228.77,376.10 L235.15,378.75 L239.22,381.05 L242.94,382.29 L241.35,386.72 L242.23,388.67 L246.66,390.44 L244.89,394.86 L242.94,397.88 L247.01,398.41 L251.44,400.00 L254.98,390.97 L259.58,380.70 L264.72,370.25 L265.96,366.18 L269.85,357.15 L273.22,349.71 L274.81,345.46 L281.36,333.42 L285.97,326.34 L288.27,321.03 L295.17,306.86 L296.77,305.09 L299.07,299.60 L303.85,285.26 L307.75,272.33 L310.23,266.84 L311.82,261.89 L316.95,250.38 L319.26,243.82 L322.97,236.39 L326.69,226.65 L333.95,211.24 L335.19,210.00 L339.62,208.94 L336.96,204.16 L330.41,197.96 L310.40,181.50 L309.34,178.13 L310.05,174.24 L314.12,161.31 L315.01,156.00 L303.67,153.87 L302.79,146.44 L299.78,142.54 L296.77,140.95 L291.81,135.46 L288.98,134.75 L287.03,133.16 L282.96,131.39 L279.42,131.39 L274.99,130.50 L271.80,128.20 L268.61,129.08 L263.66,126.07 L255.87,120.76 L254.80,118.46 L252.50,116.16 L250.20,112.79 L237.10,104.12 L238.34,101.28 L237.45,98.98 L240.28,95.26 L242.76,93.85 L242.41,88.89 L243.12,80.92 L244.18,71.89 L248.96,42.32 L250.73,26.21 L248.25,24.08 L247.01,21.07 L247.19,17.53 L239.93,11.69 L238.34,9.92 L234.44,11.86 L227.36,9.21 L225.41,7.61 L221.87,8.32 L220.81,10.98 L218.33,11.51 L216.38,10.45 L213.01,10.09 L208.59,7.79 L206.99,5.84 L203.10,5.14 L199.56,6.91 L195.84,3.54 L194.42,4.25 L191.59,3.01 L191.24,1.42 L187.34,1.24 L185.92,1.95 L181.32,0.53 L180.26,3.19 L176.72,6.73 L174.41,11.16 L171.40,12.04 L166.80,11.16 L163.61,12.04 L160.42,15.94 L155.11,17.35 L152.63,19.30 L146.97,22.31 L143.78,21.60 L141.48,19.30 L139.53,21.25 L136.34,20.89 L134.04,18.95 L130.32,18.42 L126.07,21.07 L121.12,18.77 L119.88,19.48 L117.04,18.06 L114.21,20.89 L111.55,20.01 L109.96,17.00 L106.06,16.11 L106.06,12.57 L105.18,10.09 L102.88,9.03 L101.11,6.55 L97.21,7.26 L96.33,3.54 L94.73,1.77 L92.78,1.95 L89.77,0.00 L75.08,29.22 L82.69,31.16 L84.11,32.40 L86.41,31.70 L88.89,33.47 L92.25,34.17 L83.40,53.83 L89.77,61.27 L93.14,60.73 L94.56,59.32 L98.27,59.32 L100.93,57.37 L102.88,57.37 L105.89,58.96 L107.84,58.61 L109.78,61.80 L115.45,65.69 L119.34,66.40 L124.30,70.30 L125.72,72.07 L128.20,72.24 L130.15,70.47 L134.75,70.30 L137.05,71.71 L139.18,75.43 L142.54,75.25 L150.15,77.73 L151.04,78.62 L157.06,79.50 L158.65,82.16 L156.18,86.23 L157.41,93.32 L156.88,95.44 L154.23,98.63 L153.52,103.05 L156.71,108.37 L152.99,140.77 L157.41,163.26 L151.04,160.42 L149.27,164.50 L145.91,165.38 L135.81,177.25 L133.51,178.13 L132.27,176.54 L127.67,177.42 L125.90,179.73 L125.54,183.27 L121.29,186.99 L117.04,188.22 L114.74,190.35 L112.44,189.46 L106.77,182.74 L100.75,182.20 L96.68,184.33 L96.15,187.87 L96.86,190.70 L101.11,196.90 L101.81,200.97 L99.16,206.99 L60.38,224.17 Z" stroke="currentColor" stroke-width="2" stroke-linejoin="round" fill="currentColor" fill-opacity="0.15"/>
</svg>
