<svg xmlns="http://www.w3.org/2000/svg" viewBox="0 0 400 400" fill="none">
  <path d="M0.00,116.20 L2.22,116.76 L4.85,118.98 L5.96,121.19 L8.17,123.13 L10.25,126.59 L18.84,138.64 L19.53,140.30 L19.53,142.80 L18.28,146.54 L19.39,149.86 L19.39,152.22 L18.84,155.26 L17.45,156.65 L17.45,158.73 L19.39,162.60 L24.10,163.99 L30.61,162.74 L34.07,164.27 L38.37,167.87 L38.78,169.81 L40.86,172.02 L41.97,177.01 L41.97,180.06 L45.71,182.13 L45.84,184.07 L48.48,186.57 L51.39,187.40 L52.77,189.89 L56.65,188.09 L60.25,187.12 L62.60,188.64 L65.24,186.01 L66.34,190.30 L68.42,190.86 L69.81,192.66 L68.56,195.01 L69.11,198.61 L64.82,201.11 L62.74,205.54 L64.96,208.03 L67.59,210.11 L68.98,213.30 L68.56,218.98 L69.67,223.68 L68.42,228.39 L65.37,232.13 L64.96,234.07 L66.20,234.76 L68.56,237.67 L67.45,240.58 L68.84,243.63 L66.48,246.68 L63.85,248.61 L61.22,249.03 L57.62,248.34 L54.85,250.42 L54.43,252.22 L58.17,254.02 L61.08,254.57 L63.71,253.19 L66.07,253.60 L67.59,251.80 L72.99,251.11 L74.65,250.00 L76.87,251.25 L80.19,249.72 L82.83,247.51 L84.07,245.15 L87.53,247.23 L89.61,247.37 L91.69,249.31 L93.91,248.89 L97.92,251.39 L99.58,254.85 L108.17,263.85 L114.68,271.33 L118.28,273.68 L122.71,275.76 L125.21,277.84 L126.87,280.61 L127.70,284.21 L129.64,286.43 L133.10,287.67 L136.98,291.97 L140.72,293.49 L142.38,294.88 L142.94,297.78 L145.98,299.86 L148.34,302.63 L150.00,301.80 L152.63,302.91 L152.22,305.12 L152.77,307.20 L154.85,310.53 L158.45,314.13 L163.02,317.87 L173.68,323.68 L177.70,324.24 L179.92,323.82 L184.49,325.35 L189.20,325.48 L189.75,327.01 L189.20,329.36 L187.67,330.89 L186.29,334.90 L187.67,337.67 L191.14,339.89 L192.66,340.03 L195.15,341.55 L198.06,341.00 L199.86,341.83 L202.49,341.00 L203.60,342.52 L207.34,342.11 L208.03,344.04 L210.94,345.43 L214.27,345.43 L215.93,344.18 L217.31,345.01 L219.81,344.18 L220.50,341.97 L223.41,340.86 L228.25,340.03 L236.84,340.03 L239.61,343.49 L241.69,340.44 L245.98,337.53 L250.55,336.57 L254.29,337.12 L255.54,336.29 L258.31,332.13 L262.60,329.36 L263.71,326.32 L265.51,323.82 L266.62,320.50 L268.56,317.45 L266.90,316.20 L263.16,316.48 L264.27,314.68 L270.36,309.56 L272.58,311.36 L274.79,311.91 L276.32,313.30 L284.07,311.63 L285.32,313.16 L288.78,312.88 L291.14,311.63 L294.74,311.91 L295.84,310.53 L295.57,308.03 L298.06,306.93 L302.08,305.96 L303.05,306.79 L307.48,306.37 L309.83,302.49 L311.50,301.25 L316.62,298.34 L320.78,297.65 L326.04,297.78 L326.45,298.75 L329.22,299.17 L330.06,300.42 L335.04,301.80 L337.53,303.32 L341.27,303.05 L342.11,303.60 L341.97,327.98 L343.35,327.01 L347.23,326.45 L348.06,324.93 L353.74,319.67 L354.99,319.25 L358.17,315.93 L357.76,314.82 L366.48,306.93 L370.50,305.54 L372.71,307.20 L375.62,305.96 L376.18,304.29 L378.67,301.11 L382.13,297.65 L385.46,295.57 L387.81,293.21 L390.58,292.11 L393.49,289.06 L396.26,286.84 L400.00,282.55 L393.49,278.39 L392.52,276.59 L393.07,274.79 L390.72,273.13 L390.17,271.88 L390.44,269.11 L390.03,266.07 L386.29,260.80 L383.66,259.28 L382.27,257.34 L379.22,255.12 L378.53,253.32 L376.45,252.35 L374.65,252.63 L372.30,255.68 L366.34,255.82 L364.40,253.32 L360.94,251.39 L358.59,252.22 L355.54,250.83 L353.19,250.69 L351.52,248.20 L348.48,246.81 L342.38,248.06 L339.75,246.68 L344.60,242.66 L346.81,239.47 L346.12,236.43 L344.18,235.04 L341.97,235.32 L339.20,234.21 L336.29,231.16 L335.60,228.12 L331.16,224.52 L329.78,224.10 L327.84,222.16 L323.82,222.85 L320.91,220.64 L319.11,221.19 L317.59,223.68 L317.59,226.32 L316.48,229.22 L314.13,229.64 L312.74,230.89 L312.60,232.83 L309.83,234.07 L309.97,237.67 L305.54,235.73 L302.08,235.46 L300.55,234.49 L296.54,235.60 L294.60,236.70 L293.49,238.92 L290.30,240.44 L286.70,240.17 L285.18,242.24 L284.63,244.60 L287.53,245.15 L288.64,246.26 L288.78,250.00 L288.09,251.66 L285.18,255.26 L282.55,256.23 L280.19,258.59 L277.15,258.86 L275.35,258.03 L273.27,260.25 L271.33,258.17 L268.70,258.45 L267.87,262.60 L264.40,266.62 L261.77,266.07 L257.89,266.20 L254.43,268.56 L252.77,271.05 L249.86,271.47 L249.03,273.82 L244.18,273.82 L236.98,278.53 L234.63,278.67 L232.55,277.15 L230.33,279.09 L225.90,279.50 L221.47,281.86 L214.27,282.13 L211.22,281.02 L209.97,281.99 L209.97,286.29 L207.62,284.90 L204.71,286.29 L203.05,284.21 L201.80,284.21 L199.58,286.29 L197.92,285.18 L195.43,287.67 L194.32,284.07 L196.54,281.58 L195.01,279.78 L192.94,278.95 L191.55,276.18 L189.06,275.90 L185.60,278.39 L180.06,279.09 L177.98,278.25 L176.59,276.73 L173.96,278.53 L173.27,281.02 L170.36,280.33 L169.11,282.55 L165.51,281.44 L162.19,283.10 L160.94,282.96 L159.14,281.02 L154.99,278.67 L152.91,278.95 L152.35,274.93 L151.25,273.55 L153.88,271.47 L158.31,266.90 L156.23,263.85 L152.22,263.02 L151.25,261.08 L152.77,258.45 L151.52,255.40 L146.26,251.80 L143.63,249.58 L137.67,241.69 L133.10,239.61 L132.69,237.81 L134.76,235.87 L134.35,234.35 L135.60,232.83 L136.43,229.78 L135.04,226.32 L135.18,222.16 L136.15,221.33 L134.21,217.59 L129.22,213.85 L127.70,210.53 L125.62,212.19 L122.16,212.05 L118.84,210.39 L115.93,206.65 L116.48,202.35 L115.51,200.69 L107.06,200.83 L104.57,197.65 L105.26,195.98 L108.17,194.60 L105.96,192.94 L105.40,190.72 L106.51,184.90 L105.40,183.10 L107.62,178.53 L109.14,177.56 L111.77,177.15 L112.74,175.76 L112.88,171.47 L113.43,169.94 L116.62,167.73 L115.79,165.93 L116.20,164.27 L119.11,161.08 L120.36,158.17 L119.39,148.75 L118.56,146.12 L117.17,144.60 L113.57,142.80 L113.30,140.44 L111.22,136.98 L107.89,135.32 L107.34,132.55 L103.32,131.16 L102.22,129.78 L96.95,131.30 L96.68,129.78 L94.46,126.45 L98.89,124.38 L101.66,120.08 L103.88,117.45 L108.73,115.79 L111.50,114.27 L114.13,115.24 L117.45,115.24 L118.70,113.57 L116.62,111.22 L113.30,103.88 L112.05,102.22 L114.54,94.18 L115.10,91.27 L116.90,88.23 L116.76,85.46 L115.79,82.27 L113.16,78.53 L111.36,78.39 L109.97,79.92 L106.23,80.75 L103.74,80.33 L102.63,81.86 L98.75,80.33 L96.95,81.16 L94.88,79.64 L92.94,79.64 L89.34,81.86 L84.49,82.41 L79.50,79.50 L77.01,76.87 L74.93,72.99 L71.05,72.02 L68.42,70.64 L67.73,68.98 L64.40,67.73 L63.43,66.07 L52.49,65.79 L50.00,67.04 L48.48,66.20 L45.29,66.62 L31.02,57.62 L28.39,54.57 L26.59,55.12 L31.30,61.63 L29.22,62.19 L30.19,68.56 L26.59,69.39 L23.41,68.84 L24.10,70.91 L26.04,72.99 L30.75,80.75 L26.87,83.66 L24.93,87.12 L23.55,93.21 L22.85,99.45 L21.61,100.55 L21.19,104.43 L21.47,105.54 L17.31,107.76 L16.48,113.43 L14.13,112.74 L13.02,110.25 L9.14,107.20 L7.48,109.83 L3.32,111.50 L0.00,116.20 Z" stroke="currentColor" stroke-width="2" stroke-linejoin="round" fill="currentColor" fill-opacity="0.15"/>
</svg>
