<svg xmlns="http://www.w3.org/2000/svg" viewBox="0 0 400 400" fill="none">
  <path d="M52.94,110.16 L52.08,109.91 L53.79,116.03 L55.75,122.03 L57.71,134.03 L58.20,137.94 L60.04,142.23 L62.36,144.92 L85.01,172.09 L86.96,175.03 L87.82,177.72 L87.45,197.06 L87.09,211.14 L85.86,217.63 L85.37,218.48 L81.82,221.54 L76.07,227.91 L74.36,230.72 L73.87,233.41 L73.99,236.35 L72.89,238.68 L72.77,241.74 L75.83,257.16 L76.81,259.00 L79.62,261.32 L85.50,264.01 L87.94,266.10 L92.84,268.91 L95.04,270.50 L95.53,274.30 L94.92,279.68 L96.63,288.00 L94.80,291.06 L95.29,292.29 L94.19,297.92 L93.70,298.90 L94.06,303.30 L95.53,307.34 L96.14,310.65 L96.88,311.87 L96.51,313.59 L97.00,317.01 L98.35,318.36 L99.45,323.75 L104.35,322.64 L101.41,326.68 L100.06,327.66 L101.53,330.11 L101.41,334.64 L104.96,335.37 L105.08,336.47 L103.49,339.05 L103.37,340.39 L104.59,341.86 L104.59,345.04 L102.63,346.76 L104.22,350.92 L101.53,351.29 L101.16,353.49 L98.10,355.45 L95.65,354.47 L95.04,358.14 L95.65,360.22 L96.88,362.06 L98.84,362.18 L99.82,363.65 L101.77,363.40 L103.73,362.30 L105.57,362.55 L107.04,364.38 L106.06,366.71 L104.96,367.56 L107.04,371.85 L106.18,373.07 L106.18,376.38 L104.47,376.74 L102.14,379.56 L106.06,382.50 L106.79,382.74 L106.79,386.17 L107.65,387.15 L104.96,389.23 L103.86,390.82 L105.69,394.86 L103.00,397.67 L101.53,398.41 L101.16,400.00 L104.22,399.76 L106.79,397.55 L115.36,394.86 L118.05,394.49 L120.13,395.47 L121.48,397.06 L125.28,394.00 L129.19,393.51 L130.17,392.04 L133.72,391.43 L134.58,389.72 L136.90,388.86 L138.62,386.29 L139.96,385.31 L142.78,386.78 L145.59,383.48 L147.18,382.50 L149.76,382.13 L150.86,381.27 L152.94,375.76 L153.06,374.30 L155.63,375.52 L155.26,382.86 L156.49,383.35 L159.18,381.76 L159.42,378.82 L160.40,376.62 L163.46,373.93 L165.30,374.54 L166.52,373.32 L168.48,370.26 L168.85,368.05 L172.40,366.71 L173.99,366.71 L174.60,365.12 L174.11,362.67 L175.83,361.69 L176.56,359.49 L179.13,357.28 L179.38,354.47 L182.44,353.86 L184.52,351.53 L183.66,350.55 L184.88,348.84 L188.56,345.78 L192.23,346.39 L195.41,344.92 L196.39,343.21 L197.49,339.90 L199.08,338.19 L201.53,337.33 L206.30,336.35 L208.26,333.41 L209.73,333.29 L212.55,331.46 L210.59,329.13 L211.57,328.40 L210.83,326.44 L212.06,325.95 L213.53,323.75 L216.83,323.01 L219.28,324.11 L222.95,322.28 L228.09,322.15 L230.29,323.01 L234.33,322.52 L237.39,319.83 L238.98,319.95 L241.80,318.36 L242.78,316.52 L246.70,311.63 L246.70,307.10 L247.55,304.77 L250.12,302.57 L252.33,299.14 L255.51,296.82 L258.08,297.31 L257.22,299.51 L259.06,299.63 L261.02,297.67 L262.36,295.10 L265.30,291.43 L266.28,291.80 L268.85,290.70 L269.58,288.37 L271.18,286.17 L273.75,284.33 L275.58,283.84 L276.32,282.01 L277.66,281.15 L278.40,276.99 L279.25,274.91 L278.15,273.07 L278.76,271.36 L280.48,269.28 L281.95,271.11 L287.21,275.52 L287.45,272.09 L288.31,271.11 L288.80,268.54 L289.90,268.30 L290.64,265.61 L291.86,264.63 L293.21,261.44 L294.55,259.98 L296.76,259.00 L298.47,257.41 L300.55,257.89 L303.00,256.79 L307.28,256.06 L309.98,252.75 L311.81,248.96 L314.01,246.27 L311.81,243.21 L309.49,244.43 L308.38,245.65 L306.92,244.68 L309.12,242.11 L309.12,240.27 L310.10,237.33 L312.30,235.50 L312.79,233.54 L309.61,231.09 L306.79,232.19 L305.94,230.48 L314.87,229.50 L313.77,227.66 L315.36,225.70 L318.42,224.11 L319.16,225.83 L322.22,226.44 L328.34,225.34 L330.66,224.11 L332.74,222.28 L335.31,219.22 L342.04,215.42 L342.90,216.65 L346.33,215.06 L347.92,213.46 L346.70,212.73 L345.23,213.83 L342.29,213.83 L339.72,212.61 L339.11,210.89 L335.80,211.26 L334.82,209.91 L332.50,210.65 L330.91,209.91 L328.34,210.40 L326.13,209.06 L324.79,208.94 L321.73,206.98 L320.50,204.53 L321.73,200.98 L323.07,199.63 L323.56,197.55 L323.07,196.21 L318.91,196.08 L314.87,194.74 L312.91,195.10 L309.36,194.61 L299.94,189.47 L295.90,186.17 L292.72,182.99 L290.88,180.05 L290.39,178.21 L290.76,176.25 L288.43,175.28 L286.96,176.01 L284.88,173.56 L282.19,171.73 L281.70,169.16 L280.23,167.93 L276.93,166.59 L273.50,162.79 L270.44,161.69 L268.73,159.73 L267.99,156.55 L266.52,154.10 L264.32,152.26 L260.40,150.43 L257.22,148.35 L251.47,141.74 L243.88,133.78 L242.41,130.72 L238.86,128.52 L236.90,128.89 L235.07,127.17 L233.23,127.05 L230.17,125.21 L229.07,127.29 L226.74,129.25 L223.81,130.60 L221.85,129.50 L220.38,130.48 L215.61,131.09 L214.26,132.68 L212.18,132.31 L209.85,133.54 L207.28,133.05 L203.98,131.46 L204.35,129.87 L206.79,128.03 L209.98,128.64 L212.30,128.27 L214.63,126.56 L216.71,123.87 L215.48,121.18 L216.46,118.60 L214.38,116.03 L213.28,115.42 L213.65,113.71 L216.34,110.40 L217.44,106.24 L216.46,102.08 L216.83,97.06 L215.61,94.25 L213.28,92.41 L211.32,90.21 L213.16,86.29 L216.95,84.09 L216.46,80.91 L217.56,78.82 L216.34,77.23 L214.50,76.74 L213.53,72.95 L211.20,75.28 L209.12,73.93 L205.94,74.79 L202.51,76.38 L201.29,74.17 L198.71,73.44 L196.39,71.24 L196.27,69.52 L192.96,67.69 L192.96,64.99 L191.98,60.59 L190.15,58.63 L189.78,56.92 L185.99,53.73 L182.93,52.39 L177.17,53.49 L173.01,52.26 L171.30,48.84 L171.30,47.00 L172.52,45.78 L173.01,43.08 L173.01,41.00 L172.03,38.07 L173.13,34.76 L173.13,32.56 L172.52,31.09 L164.93,20.44 L163.10,17.38 L161.14,15.67 L160.16,13.71 L157.83,11.75 L155.88,11.26 L150.86,10.16 L148.65,11.75 L146.82,11.02 L144.98,8.69 L139.60,2.94 L136.05,0.00 L134.58,5.14 L127.97,9.67 L124.17,11.87 L121.24,13.10 L119.89,14.57 L117.07,14.69 L113.04,16.28 L111.08,18.48 L107.41,18.73 L103.24,21.54 L98.10,23.62 L95.78,20.81 L95.65,22.40 L97.61,25.95 L99.69,27.42 L99.69,30.97 L103.12,33.41 L104.59,34.88 L108.63,32.31 L109.73,30.11 L113.53,26.68 L115.48,26.44 L116.95,27.17 L120.26,27.42 L118.18,31.58 L116.83,33.54 L115.61,36.47 L126.38,44.43 L130.54,42.96 L132.25,40.51 L137.27,38.43 L142.90,39.17 L141.06,42.72 L139.47,44.43 L141.31,46.27 L141.92,48.23 L140.21,51.77 L139.96,53.86 L141.31,56.92 L141.68,59.98 L138.74,63.16 L134.94,64.63 L131.76,68.54 L129.44,70.38 L129.80,71.48 L128.21,73.19 L128.21,74.91 L126.87,78.34 L127.60,79.44 L126.62,81.03 L123.68,83.35 L119.40,85.56 L116.83,87.76 L114.99,92.17 L113.28,93.51 L110.59,94.00 L109.73,94.86 L109.61,96.94 L108.14,101.47 L108.26,105.26 L107.16,106.49 L109.00,110.53 L106.43,113.22 L104.35,113.71 L101.77,117.99 L98.84,118.73 L95.78,118.97 L94.43,118.12 L91.74,119.95 L87.58,117.75 L85.62,116.28 L84.39,117.14 L82.19,117.38 L80.48,115.54 L77.66,115.18 L74.24,116.52 L71.66,113.59 L68.85,113.71 L66.28,110.89 L63.34,111.63 L61.63,111.14 L58.69,111.38 L52.94,110.16 Z" stroke="currentColor" stroke-width="2" stroke-linejoin="round" fill="currentColor" fill-opacity="0.15"/>
</svg>
