<svg xmlns="http://www.w3.org/2000/svg" viewBox="0 0 400 400" fill="none">
  <path d="M190.03,375.09 L190.21,374.29 L190.95,373.93 L192.30,372.52 L191.38,370.49 L191.93,369.69 L193.28,368.65 L192.85,368.16 L192.85,366.44 L192.48,366.32 L190.52,364.85 L191.69,363.44 L192.55,363.25 L192.55,361.60 L192.98,360.98 L191.93,358.83 L192.48,358.40 L192.98,357.24 L192.24,356.32 L191.32,356.20 L190.34,356.75 L189.36,356.87 L188.87,356.13 L187.88,356.07 L187.27,355.15 L186.96,354.11 L187.27,352.27 L188.50,352.76 L190.03,351.78 L190.21,350.67 L191.56,350.49 L190.77,348.40 L191.75,347.55 L191.75,345.95 L191.13,345.21 L191.20,344.54 L191.99,343.25 L191.93,342.70 L190.15,342.33 L190.21,340.06 L189.48,338.83 L190.15,338.34 L191.63,336.32 L189.17,336.87 L188.62,334.17 L187.94,333.50 L187.70,331.78 L187.88,330.92 L187.52,330.31 L187.21,328.65 L186.47,326.63 L186.29,324.42 L186.53,323.93 L187.09,321.10 L186.84,320.49 L187.76,318.96 L186.90,314.79 L187.21,312.09 L186.96,310.18 L185.86,309.39 L183.40,307.98 L182.18,306.93 L179.23,305.58 L177.82,304.42 L177.33,303.50 L175.80,295.77 L175.86,294.23 L176.41,293.07 L176.35,291.60 L176.60,290.25 L177.45,288.83 L180.34,285.64 L182.12,284.11 L182.36,283.68 L182.98,280.43 L183.16,273.37 L183.34,263.68 L182.91,262.33 L181.93,260.86 L170.58,247.24 L169.42,245.89 L168.50,243.74 L168.25,241.78 L167.27,235.77 L166.29,232.76 L165.43,229.69 L165.86,229.82 L166.60,229.26 L168.80,228.53 L172.61,227.55 L174.94,226.32 L177.58,223.62 L178.80,222.58 L180.40,220.80 L181.56,220.86 L183.53,220.49 L186.17,218.59 L187.27,217.24 L186.90,215.95 L185.98,215.28 L184.33,215.21 L183.28,214.11 L182.36,213.99 L182.61,212.33 L181.99,212.09 L181.20,212.58 L180.58,211.41 L179.85,210.98 L179.60,209.51 L177.88,208.59 L177.94,207.06 L177.39,206.63 L177.33,205.71 L175.80,205.46 L175.43,204.60 L176.53,203.44 L177.09,201.29 L176.72,200.00 L176.90,199.51 L178.56,198.47 L178.62,196.75 L178.25,194.17 L179.85,192.94 L180.71,191.47 L180.89,189.94 L180.89,188.22 L181.13,186.01 L181.93,185.83 L183.34,187.06 L183.59,186.56 L185.06,185.83 L185.25,185.28 L186.78,184.60 L187.33,185.03 L188.50,186.44 L191.07,185.40 L193.16,183.99 L195.00,183.87 L195.98,182.76 L198.01,181.96 L199.42,181.90 L200.09,181.17 L201.56,180.55 L203.47,179.45 L206.78,177.18 L207.52,174.60 L206.60,171.10 L206.78,170.37 L208.13,169.39 L208.74,167.12 L207.70,165.40 L208.25,162.21 L210.03,152.21 L209.97,150.61 L210.34,149.94 L211.13,149.63 L212.79,150.12 L216.78,152.58 L218.56,153.93 L223.10,156.69 L223.96,156.81 L225.37,156.01 L225.98,154.97 L227.58,153.19 L228.19,152.88 L229.23,153.19 L230.03,152.94 L231.20,154.29 L237.52,158.28 L238.93,158.10 L239.60,158.47 L240.71,157.91 L245.55,158.04 L245.98,158.77 L247.45,159.33 L247.76,160.06 L248.93,160.67 L250.64,161.10 L251.56,162.82 L252.67,163.99 L254.88,165.28 L257.02,165.03 L258.62,164.05 L259.48,164.05 L260.40,164.72 L261.20,164.36 L262.91,165.03 L263.40,164.36 L264.51,164.54 L266.17,164.17 L266.78,163.50 L267.58,163.56 L268.19,164.05 L269.60,163.99 L271.50,165.09 L272.67,165.52 L273.10,167.67 L273.77,168.34 L273.65,169.51 L273.96,170.67 L274.88,171.84 L274.82,172.33 L275.67,173.25 L281.32,173.25 L282.85,174.11 L284.33,175.15 L285.74,174.66 L286.90,174.54 L287.82,175.46 L290.95,176.20 L293.59,176.38 L294.94,175.34 L296.53,175.15 L297.94,174.79 L299.85,175.09 L300.71,174.66 L300.46,173.44 L300.58,172.39 L301.50,171.66 L302.91,172.15 L305.12,174.42 L305.00,175.83 L305.74,176.63 L307.09,176.26 L306.96,175.46 L307.70,174.60 L308.74,174.85 L310.09,174.36 L311.13,173.50 L311.56,171.53 L312.79,171.23 L313.77,170.25 L314.63,170.00 L315.86,168.96 L316.10,167.73 L315.49,167.06 L315.12,165.95 L315.98,163.93 L316.90,163.68 L317.76,163.99 L319.17,163.19 L319.85,162.02 L321.13,161.10 L321.44,159.14 L322.79,158.22 L323.22,157.12 L322.42,155.15 L320.89,154.36 L320.40,153.01 L321.81,152.09 L322.85,150.80 L324.02,150.49 L324.94,151.29 L325.67,151.41 L326.04,150.67 L327.88,150.00 L329.54,149.88 L330.40,149.14 L330.40,148.22 L329.72,146.99 L330.46,146.01 L330.64,144.60 L330.95,143.87 L332.30,142.33 L333.65,142.82 L333.77,141.96 L332.42,140.37 L332.42,139.51 L331.07,137.61 L330.15,137.36 L330.15,135.83 L331.26,135.34 L332.55,135.15 L333.65,134.05 L332.91,133.56 L331.63,133.25 L331.44,132.64 L330.64,132.39 L330.15,131.53 L330.15,130.31 L330.77,129.94 L330.71,128.96 L332.06,127.91 L332.36,126.44 L330.83,126.75 L328.07,126.01 L326.84,125.52 L325.61,124.72 L324.45,122.33 L324.63,121.41 L324.20,120.12 L323.04,119.33 L323.40,118.28 L324.94,118.34 L327.27,117.06 L327.58,116.13 L326.96,114.72 L325.92,113.50 L324.94,112.82 L323.90,110.92 L323.83,108.83 L323.40,107.73 L322.73,107.06 L323.65,106.26 L324.75,106.81 L325.67,106.13 L326.29,105.21 L328.19,104.05 L329.66,102.64 L328.62,102.21 L328.25,101.35 L330.40,100.61 L330.71,99.51 L331.81,98.40 L332.55,98.04 L334.26,97.98 L335.74,97.48 L335.67,96.56 L335.18,96.13 L336.47,95.09 L338.01,94.97 L340.64,95.58 L341.01,94.17 L340.89,93.44 L341.44,90.43 L340.15,88.10 L338.87,86.56 L338.50,85.03 L337.45,83.44 L336.17,81.84 L334.20,78.77 L333.16,76.44 L333.10,75.09 L332.42,74.60 L331.56,73.13 L331.13,70.98 L329.66,72.21 L330.09,73.07 L328.19,72.58 L328.44,73.25 L328.01,73.87 L328.44,75.64 L327.52,77.06 L326.96,77.24 L325.00,76.20 L322.98,77.48 L322.12,78.40 L320.21,77.79 L319.48,79.26 L319.36,80.00 L317.94,78.90 L316.53,79.57 L315.98,78.96 L316.23,76.81 L317.58,76.32 L316.60,75.46 L317.33,74.66 L316.41,73.56 L316.10,74.29 L315.06,73.93 L314.82,73.07 L314.08,72.21 L315.31,71.47 L315.25,71.04 L313.83,70.67 L313.53,69.94 L312.61,70.00 L310.71,71.29 L308.74,71.53 L308.37,72.39 L306.72,71.60 L304.82,71.35 L303.77,70.92 L301.69,71.78 L301.75,73.25 L299.60,74.11 L299.48,73.62 L297.94,73.19 L297.76,73.93 L298.44,74.97 L296.96,75.71 L295.74,75.89 L294.26,75.46 L291.38,76.32 L288.56,76.93 L284.94,77.55 L284.14,77.36 L282.91,77.67 L281.20,77.55 L279.60,77.24 L276.29,75.95 L274.08,74.85 L271.93,74.36 L270.95,73.93 L267.58,74.05 L265.67,74.36 L262.48,73.37 L259.36,73.93 L256.84,74.17 L253.90,74.85 L251.87,75.09 L250.89,75.64 L248.62,76.63 L247.21,77.36 L246.23,78.40 L245.31,78.47 L244.39,79.20 L242.67,81.41 L241.20,82.70 L237.88,84.05 L236.41,85.89 L234.39,87.30 L233.28,88.34 L233.10,89.02 L231.93,90.37 L230.52,91.72 L229.85,92.02 L227.45,92.39 L225.98,92.88 L224.63,94.29 L222.42,92.45 L222.24,90.80 L220.58,88.10 L220.64,87.61 L221.56,85.89 L221.87,84.42 L221.93,81.78 L221.32,80.80 L221.01,78.34 L221.26,76.81 L221.07,75.40 L221.38,74.42 L221.26,73.13 L220.83,72.33 L220.83,71.41 L219.79,70.00 L218.62,68.90 L217.82,66.99 L217.09,66.44 L216.17,64.05 L215.43,62.82 L215.31,61.66 L215.49,60.00 L216.66,58.40 L216.60,57.06 L217.58,55.40 L217.70,52.76 L218.62,52.21 L218.62,50.55 L218.87,48.65 L217.82,48.22 L217.33,47.12 L216.66,46.63 L217.21,45.95 L217.58,44.85 L218.37,43.56 L217.76,40.18 L218.13,38.28 L218.56,37.85 L217.64,36.81 L217.82,36.20 L219.97,34.79 L220.89,34.79 L221.99,33.37 L223.04,33.56 L224.08,32.64 L224.26,31.66 L224.02,29.88 L224.94,27.73 L224.14,25.89 L224.26,25.15 L225.67,23.62 L226.90,21.90 L227.94,21.29 L229.66,19.33 L230.71,18.77 L230.64,17.91 L231.38,16.99 L231.26,14.97 L231.01,14.17 L230.95,12.52 L231.50,11.60 L232.91,10.74 L234.82,8.71 L235.92,7.79 L235.55,6.38 L236.35,4.60 L236.96,4.23 L234.88,3.25 L233.83,2.52 L233.04,1.35 L232.06,0.67 L229.85,0.80 L228.19,0.00 L226.90,0.80 L225.92,2.94 L224.82,4.54 L223.10,5.52 L221.63,7.61 L219.54,8.28 L218.19,9.26 L216.66,11.84 L215.61,12.09 L213.71,11.72 L212.18,10.74 L209.85,10.61 L209.17,11.17 L208.99,12.58 L207.58,12.88 L207.09,13.80 L205.80,14.91 L204.33,15.28 L203.71,16.07 L201.75,17.48 L200.21,17.85 L197.21,19.51 L196.78,20.06 L197.02,21.17 L198.19,22.39 L197.64,23.74 L194.45,25.09 L193.77,25.52 L191.75,27.85 L189.79,31.29 L190.34,33.01 L189.11,33.37 L188.56,33.93 L188.99,35.83 L189.66,36.99 L189.23,37.61 L185.49,37.98 L184.57,37.18 L183.10,37.18 L184.08,38.65 L184.33,39.63 L183.96,40.67 L181.32,40.80 L180.52,41.10 L179.29,42.52 L178.25,43.13 L178.01,44.11 L176.29,44.72 L175.43,43.68 L173.65,43.50 L171.13,43.68 L169.42,44.05 L168.56,44.66 L165.86,44.66 L163.40,45.71 L162.30,45.46 L160.58,42.82 L160.03,42.33 L157.94,41.47 L156.41,39.63 L154.51,38.16 L152.85,38.53 L150.71,36.50 L149.60,36.32 L148.31,37.12 L146.84,37.61 L145.37,38.59 L144.94,41.17 L144.94,42.39 L144.20,43.31 L143.04,42.70 L141.13,40.92 L140.34,40.74 L138.93,41.60 L138.01,41.66 L136.60,41.41 L135.74,40.55 L136.04,38.28 L135.92,37.36 L134.57,37.48 L131.50,36.87 L130.77,36.87 L130.28,35.58 L130.28,33.25 L129.85,31.29 L129.48,30.74 L127.39,31.23 L126.35,31.29 L125.00,30.49 L123.77,29.02 L123.53,27.67 L123.96,26.32 L123.53,25.21 L122.67,24.48 L120.58,23.56 L119.42,23.62 L117.27,23.01 L115.37,21.17 L114.20,19.45 L113.22,19.94 L110.34,20.37 L109.72,20.18 L107.58,20.37 L105.31,20.18 L104.63,20.67 L103.16,20.18 L102.79,19.20 L101.07,18.53 L98.87,18.16 L98.37,18.83 L97.09,18.22 L96.66,17.48 L95.74,18.40 L94.75,18.59 L94.20,19.20 L92.91,19.82 L92.73,21.47 L93.04,22.02 L92.48,23.87 L92.55,25.03 L90.52,24.97 L89.66,24.79 L88.62,25.52 L88.56,26.07 L86.35,25.58 L85.67,26.07 L84.82,25.95 L84.39,26.56 L85.31,28.83 L84.94,29.26 L83.90,29.20 L83.22,29.82 L82.06,29.02 L81.50,29.08 L80.95,28.16 L80.09,28.28 L79.17,26.69 L78.50,26.50 L76.29,27.73 L75.31,28.04 L74.26,27.61 L75.43,26.87 L75.43,26.13 L74.26,24.97 L73.77,24.05 L72.85,24.66 L71.07,24.85 L70.03,25.64 L70.03,26.32 L68.37,26.56 L67.09,26.01 L66.60,26.69 L65.43,26.81 L64.02,26.38 L62.42,26.87 L62.36,27.55 L61.13,27.67 L60.52,27.36 L58.99,29.45 L59.79,30.55 L59.60,31.23 L58.56,32.21 L59.54,33.50 L61.01,34.23 L61.32,35.34 L62.12,36.13 L62.55,37.73 L62.18,39.02 L60.95,39.33 L60.34,40.49 L60.77,42.27 L61.44,43.37 L62.61,44.48 L64.26,44.97 L65.06,46.20 L65.31,47.36 L66.84,48.22 L67.58,49.39 L67.52,51.72 L68.80,52.70 L68.80,54.42 L69.05,55.09 L68.93,56.20 L69.36,58.53 L71.01,60.98 L71.20,62.09 L71.07,63.62 L71.32,65.09 L73.28,67.18 L74.02,67.85 L74.45,69.26 L74.20,69.94 L74.94,70.55 L75.37,70.00 L76.41,69.63 L76.78,68.04 L76.66,66.63 L77.09,65.34 L78.13,65.21 L79.54,64.48 L81.07,65.46 L82.61,67.06 L83.59,67.36 L84.88,67.12 L85.80,65.95 L86.53,66.63 L87.64,66.75 L89.11,66.44 L90.77,64.48 L90.83,63.93 L91.81,62.82 L92.79,62.58 L91.75,64.36 L91.32,65.46 L90.09,66.26 L89.48,68.83 L89.97,70.06 L89.91,70.80 L91.99,71.90 L92.67,72.58 L93.16,73.87 L92.73,75.71 L93.04,76.69 L93.10,78.22 L94.39,80.00 L95.31,82.76 L95.80,83.13 L98.19,84.05 L99.23,83.99 L100.15,84.66 L101.63,85.03 L101.93,85.77 L100.77,86.87 L100.71,87.98 L99.29,88.10 L98.25,89.14 L96.84,91.53 L96.72,92.02 L98.07,93.68 L98.01,94.42 L98.99,94.79 L99.42,95.77 L100.46,96.20 L100.71,96.69 L100.52,97.79 L102.42,98.28 L103.47,98.77 L103.40,100.18 L104.82,100.86 L107.15,100.61 L106.23,102.64 L105.25,103.50 L104.45,103.68 L102.48,103.56 L101.38,103.19 L100.95,104.36 L99.17,106.01 L98.93,106.50 L99.23,108.16 L98.80,110.06 L99.36,111.96 L98.87,114.36 L98.87,116.50 L99.91,118.16 L99.17,118.77 L99.60,119.94 L99.05,121.84 L97.76,123.07 L97.70,123.80 L97.09,124.48 L96.84,125.58 L96.23,125.89 L95.98,126.99 L95.00,127.18 L94.69,126.56 L93.71,126.69 L92.73,127.85 L91.87,128.04 L91.50,130.25 L91.13,131.10 L87.76,131.66 L86.17,133.01 L85.80,133.93 L84.02,133.62 L83.22,133.80 L82.42,135.15 L81.81,135.64 L79.97,135.83 L79.17,137.30 L77.94,137.91 L77.58,138.71 L76.66,138.77 L75.86,139.45 L75.25,139.02 L70.71,139.63 L70.09,140.61 L71.13,141.60 L71.50,142.52 L70.46,144.79 L70.52,145.64 L69.17,148.47 L69.17,149.39 L69.66,150.06 L68.99,151.17 L69.85,152.02 L69.66,153.25 L70.09,154.60 L69.85,155.03 L71.81,154.91 L73.47,154.23 L74.69,154.17 L75.61,152.39 L76.78,152.52 L78.07,153.44 L79.23,152.82 L80.40,152.82 L81.38,153.37 L82.30,152.45 L84.26,151.72 L86.10,151.96 L86.90,151.60 L87.52,150.80 L88.68,151.23 L89.85,151.23 L90.58,149.82 L91.99,149.33 L93.90,149.57 L95.06,148.83 L97.21,148.22 L98.74,146.32 L99.79,147.73 L99.66,148.40 L100.34,149.14 L101.26,149.26 L102.24,149.88 L104.82,151.17 L105.43,152.52 L105.31,153.07 L104.39,153.37 L104.33,154.72 L103.77,155.89 L102.91,156.50 L101.99,156.38 L100.34,157.36 L98.99,158.59 L98.56,160.12 L97.33,160.98 L95.86,162.94 L94.63,163.99 L93.59,166.07 L91.69,166.87 L91.26,167.36 L89.05,168.47 L88.31,170.37 L88.37,171.04 L86.35,172.27 L83.90,173.01 L83.71,173.62 L82.12,174.48 L81.56,175.40 L81.01,176.99 L79.11,178.40 L79.23,179.88 L79.60,181.41 L78.68,184.29 L78.68,185.15 L78.19,185.77 L78.37,186.44 L78.01,187.36 L78.01,188.59 L77.39,189.51 L77.70,190.43 L77.39,192.58 L76.29,194.85 L75.55,195.52 L75.43,196.56 L74.63,197.67 L74.88,199.26 L73.71,201.41 L73.71,201.84 L73.71,202.58 L75.31,204.85 L75.86,206.99 L76.47,207.98 L76.17,208.59 L74.82,208.90 L74.63,209.88 L75.74,210.00 L77.94,210.86 L79.11,211.10 L79.85,211.90 L79.97,213.87 L79.48,214.66 L78.93,216.99 L79.17,217.48 L78.80,218.96 L79.23,219.57 L79.23,222.02 L79.60,222.52 L79.11,223.31 L79.29,223.87 L78.13,225.95 L77.82,226.81 L76.04,227.98 L75.55,228.65 L75.55,229.88 L77.33,232.82 L77.09,234.79 L78.93,235.28 L80.71,236.07 L80.58,237.79 L82.61,239.45 L83.40,239.69 L84.94,240.74 L85.98,241.90 L86.90,241.10 L88.07,241.84 L88.74,241.84 L88.99,242.94 L89.54,243.31 L91.38,242.64 L93.10,243.25 L93.53,244.36 L93.53,246.26 L92.98,248.40 L92.30,249.82 L91.07,250.98 L89.79,251.23 L88.50,252.02 L87.09,253.93 L85.98,255.03 L83.10,255.64 L81.93,256.07 L80.71,257.48 L80.28,258.47 L80.15,259.88 L81.13,262.76 L81.01,263.68 L81.87,263.74 L81.56,264.54 L80.71,264.97 L81.32,265.95 L78.50,268.34 L76.78,270.61 L77.15,271.23 L76.72,271.96 L75.61,272.33 L75.06,273.01 L74.39,273.07 L74.20,275.03 L73.59,275.89 L73.47,276.99 L73.96,278.16 L76.96,278.96 L77.64,278.59 L79.66,279.08 L81.50,279.26 L83.04,279.94 L85.43,280.25 L86.60,280.86 L89.97,283.01 L90.95,283.25 L92.06,284.42 L93.71,285.28 L94.82,286.81 L97.21,288.47 L97.58,289.26 L97.33,290.92 L96.96,291.78 L95.74,292.64 L95.80,293.50 L97.21,293.37 L97.58,294.17 L97.09,295.83 L97.33,296.50 L96.53,298.28 L94.63,298.90 L93.47,298.77 L90.89,299.02 L89.05,298.04 L87.88,297.67 L86.96,298.04 L87.58,300.61 L87.15,301.96 L87.45,302.27 L87.21,303.68 L89.36,306.13 L88.99,328.96 L88.87,329.33 L83.22,330.00 L82.18,330.31 L77.64,329.69 L76.84,329.26 L75.25,329.63 L74.08,329.08 L74.08,327.61 L73.77,326.75 L72.79,325.95 L71.32,325.83 L70.09,325.21 L70.21,326.20 L70.83,328.47 L71.38,328.22 L71.81,330.55 L71.63,331.78 L70.40,333.37 L70.28,334.29 L68.74,336.56 L67.94,337.24 L67.52,338.28 L67.82,340.55 L67.39,341.66 L67.82,342.82 L67.39,343.99 L68.07,344.91 L68.07,346.07 L68.44,347.61 L69.72,351.47 L69.54,352.39 L69.72,353.50 L70.34,354.72 L70.09,355.89 L70.40,356.93 L71.81,357.18 L73.83,356.69 L74.57,356.81 L77.09,358.16 L78.01,359.63 L79.05,359.94 L80.03,359.63 L80.89,358.59 L82.24,358.77 L83.47,359.45 L84.82,361.29 L84.75,362.27 L86.35,363.44 L88.31,364.17 L89.54,364.11 L90.46,364.36 L90.03,365.95 L90.46,366.50 L89.91,368.10 L91.81,370.25 L92.06,370.92 L93.16,370.86 L94.08,371.53 L95.31,371.04 L96.17,371.35 L97.15,372.27 L97.64,373.19 L96.90,374.11 L97.58,375.40 L98.50,375.89 L99.60,376.93 L100.21,377.98 L101.99,377.98 L102.36,378.40 L102.30,379.75 L101.69,380.06 L100.83,381.53 L99.72,381.78 L99.72,382.52 L100.28,382.94 L98.99,384.66 L98.93,385.52 L97.82,386.56 L97.76,387.48 L96.47,387.79 L96.23,388.77 L95.25,389.75 L94.88,391.78 L94.14,392.45 L94.14,394.11 L92.48,395.34 L90.64,396.13 L90.15,396.69 L90.46,397.91 L91.63,398.77 L91.81,399.57 L93.40,400.00 L94.26,398.71 L95.25,398.16 L96.17,398.65 L97.52,398.53 L98.44,396.81 L99.36,396.63 L100.40,395.64 L102.24,392.88 L103.96,392.27 L104.69,392.70 L105.67,392.02 L105.80,391.35 L108.31,391.10 L109.79,389.88 L111.20,390.18 L112.91,389.88 L113.90,390.86 L116.23,391.90 L117.39,392.09 L119.91,391.35 L121.01,391.35 L123.10,390.55 L123.71,391.53 L125.25,392.27 L126.90,392.52 L127.64,392.02 L128.13,391.10 L129.66,390.80 L131.01,389.33 L132.12,389.14 L133.90,389.69 L136.41,388.90 L138.01,387.67 L139.60,386.69 L140.83,385.28 L143.65,385.46 L144.88,384.05 L146.23,384.05 L146.78,384.54 L147.27,385.89 L148.25,386.99 L151.07,388.34 L152.24,387.79 L153.34,388.16 L155.74,387.61 L157.27,387.55 L159.42,387.61 L161.07,389.94 L162.61,390.67 L163.83,392.09 L164.82,392.82 L166.10,395.46 L166.72,395.83 L168.13,394.79 L170.52,394.05 L171.20,393.56 L172.55,393.50 L173.10,393.13 L173.47,392.02 L174.57,391.29 L175.80,391.66 L176.66,390.37 L178.07,390.12 L179.23,389.45 L178.68,388.65 L177.02,387.48 L176.90,384.91 L175.98,383.25 L175.43,380.92 L178.19,379.51 L178.62,379.02 L180.28,378.47 L180.34,377.98 L181.99,377.85 L182.48,377.18 L183.28,377.24 L184.75,376.87 L185.06,376.20 L186.29,375.09 L187.09,375.28 L187.64,374.79 L189.17,375.52 L190.03,375.09 Z" stroke="currentColor" stroke-width="2" stroke-linejoin="round" fill="currentColor" fill-opacity="0.15"/>
</svg>
